<svg width="265" height="51" viewBox="0 0 265 51" fill="none" xmlns="http://www.w3.org/2000/svg">
<g filter="url(#filter0_d_23_29)">
<rect x="4" width="257" height="43" rx="5" fill="#542CB3"/>
<rect x="4.5" y="0.5" width="256" height="42" rx="4.5" stroke="#542CB3"/>
</g>
<mask id="path-3-outside-1_23_29" maskUnits="userSpaceOnUse" x="90" y="11" width="86" height="19" fill="black">
<rect fill="white" x="90" y="11" width="86" height="19"/>
<path d="M94.784 28H91.2V13.9082H94.784V28ZM97.5016 28V17.1309H100.861V18.8984H101.046C101.525 17.668 102.814 16.877 104.386 16.877C106.808 16.877 108.185 18.3711 108.185 20.9785V28H104.728V21.75C104.728 20.4316 104.074 19.6992 102.902 19.6992C101.74 19.6992 100.949 20.5391 100.949 21.7891V28H97.5016ZM110.239 20.4023C110.239 18.2441 112.084 16.877 115.014 16.877C118.022 16.877 119.672 18.0391 119.799 20.2266H116.655C116.557 19.5918 115.981 19.2109 115.043 19.2109C114.145 19.2109 113.52 19.6016 113.52 20.1875C113.52 20.6465 113.911 20.9199 114.77 21.1055L117.016 21.5645C119.155 22.0137 120.082 22.9023 120.082 24.5527C120.082 26.8086 118.1 28.2539 115.063 28.2539C111.948 28.2539 110.17 27.0723 109.975 24.8848H113.305C113.481 25.5586 114.096 25.9199 115.112 25.9199C116.059 25.9199 116.674 25.5391 116.674 24.9531C116.674 24.4941 116.352 24.25 115.483 24.0645L113.461 23.6348C111.303 23.1758 110.239 22.1113 110.239 20.4023ZM131.921 21.1543H128.747C128.601 20.1387 127.976 19.5332 126.921 19.5332C125.573 19.5332 124.89 20.5391 124.89 22.5508C124.89 24.582 125.583 25.5977 126.921 25.5977C127.956 25.5977 128.591 25.0703 128.747 24.0547H131.921C131.716 26.6523 129.87 28.2539 126.921 28.2539C123.337 28.2539 121.423 26.2617 121.423 22.5508C121.423 18.8594 123.337 16.877 126.921 16.877C129.919 16.877 131.706 18.4883 131.921 21.1543ZM133.711 28V17.1309H137.07V18.918H137.256C137.52 17.8242 138.574 16.9648 139.893 16.9648C140.322 16.9648 140.85 17.0234 141.113 17.1309V20.0703C140.85 19.9629 140.098 19.875 139.658 19.875C138.164 19.875 137.158 20.7344 137.158 22.248V28H133.711ZM142.708 28V17.1309H146.165V28H142.708ZM144.436 15.8711C143.225 15.8711 142.493 15.2559 142.493 14.3379C142.493 13.4102 143.225 12.7949 144.436 12.7949C145.657 12.7949 146.389 13.4102 146.389 14.3379C146.389 15.2559 145.657 15.8711 144.436 15.8711ZM155.504 28.166C153.961 28.166 152.74 27.4727 152.222 26.3008H152.037V28H148.677V13.0586H152.125V18.8789H152.31C152.838 17.668 154.009 16.9648 155.504 16.9648C158.257 16.9648 159.839 19.0156 159.839 22.5605C159.839 26.0859 158.228 28.166 155.504 28.166ZM154.214 19.6797C152.925 19.6797 152.115 20.793 152.105 22.5703C152.115 24.3477 152.916 25.4512 154.214 25.4512C155.504 25.4512 156.295 24.3477 156.295 22.5605C156.295 20.793 155.494 19.6797 154.214 19.6797ZM161.698 28V17.1309H165.155V28H161.698ZM163.426 15.8711C162.215 15.8711 161.483 15.2559 161.483 14.3379C161.483 13.4102 162.215 12.7949 163.426 12.7949C164.647 12.7949 165.379 13.4102 165.379 14.3379C165.379 15.2559 164.647 15.8711 163.426 15.8711ZM167.57 28V17.1309H170.929V18.918H171.114C171.378 17.8242 172.433 16.9648 173.751 16.9648C174.181 16.9648 174.708 17.0234 174.972 17.1309V20.0703C174.708 19.9629 173.956 19.875 173.517 19.875C172.023 19.875 171.017 20.7344 171.017 22.248V28H167.57Z"/>
</mask>
<path d="M94.784 28H91.2V13.9082H94.784V28ZM97.5016 28V17.1309H100.861V18.8984H101.046C101.525 17.668 102.814 16.877 104.386 16.877C106.808 16.877 108.185 18.3711 108.185 20.9785V28H104.728V21.75C104.728 20.4316 104.074 19.6992 102.902 19.6992C101.74 19.6992 100.949 20.5391 100.949 21.7891V28H97.5016ZM110.239 20.4023C110.239 18.2441 112.084 16.877 115.014 16.877C118.022 16.877 119.672 18.0391 119.799 20.2266H116.655C116.557 19.5918 115.981 19.2109 115.043 19.2109C114.145 19.2109 113.52 19.6016 113.52 20.1875C113.52 20.6465 113.911 20.9199 114.77 21.1055L117.016 21.5645C119.155 22.0137 120.082 22.9023 120.082 24.5527C120.082 26.8086 118.1 28.2539 115.063 28.2539C111.948 28.2539 110.17 27.0723 109.975 24.8848H113.305C113.481 25.5586 114.096 25.9199 115.112 25.9199C116.059 25.9199 116.674 25.5391 116.674 24.9531C116.674 24.4941 116.352 24.25 115.483 24.0645L113.461 23.6348C111.303 23.1758 110.239 22.1113 110.239 20.4023ZM131.921 21.1543H128.747C128.601 20.1387 127.976 19.5332 126.921 19.5332C125.573 19.5332 124.89 20.5391 124.89 22.5508C124.89 24.582 125.583 25.5977 126.921 25.5977C127.956 25.5977 128.591 25.0703 128.747 24.0547H131.921C131.716 26.6523 129.87 28.2539 126.921 28.2539C123.337 28.2539 121.423 26.2617 121.423 22.5508C121.423 18.8594 123.337 16.877 126.921 16.877C129.919 16.877 131.706 18.4883 131.921 21.1543ZM133.711 28V17.1309H137.07V18.918H137.256C137.52 17.8242 138.574 16.9648 139.893 16.9648C140.322 16.9648 140.85 17.0234 141.113 17.1309V20.0703C140.85 19.9629 140.098 19.875 139.658 19.875C138.164 19.875 137.158 20.7344 137.158 22.248V28H133.711ZM142.708 28V17.1309H146.165V28H142.708ZM144.436 15.8711C143.225 15.8711 142.493 15.2559 142.493 14.3379C142.493 13.4102 143.225 12.7949 144.436 12.7949C145.657 12.7949 146.389 13.4102 146.389 14.3379C146.389 15.2559 145.657 15.8711 144.436 15.8711ZM155.504 28.166C153.961 28.166 152.74 27.4727 152.222 26.3008H152.037V28H148.677V13.0586H152.125V18.8789H152.31C152.838 17.668 154.009 16.9648 155.504 16.9648C158.257 16.9648 159.839 19.0156 159.839 22.5605C159.839 26.0859 158.228 28.166 155.504 28.166ZM154.214 19.6797C152.925 19.6797 152.115 20.793 152.105 22.5703C152.115 24.3477 152.916 25.4512 154.214 25.4512C155.504 25.4512 156.295 24.3477 156.295 22.5605C156.295 20.793 155.494 19.6797 154.214 19.6797ZM161.698 28V17.1309H165.155V28H161.698ZM163.426 15.8711C162.215 15.8711 161.483 15.2559 161.483 14.3379C161.483 13.4102 162.215 12.7949 163.426 12.7949C164.647 12.7949 165.379 13.4102 165.379 14.3379C165.379 15.2559 164.647 15.8711 163.426 15.8711ZM167.57 28V17.1309H170.929V18.918H171.114C171.378 17.8242 172.433 16.9648 173.751 16.9648C174.181 16.9648 174.708 17.0234 174.972 17.1309V20.0703C174.708 19.9629 173.956 19.875 173.517 19.875C172.023 19.875 171.017 20.7344 171.017 22.248V28H167.57Z" fill="white"/>
<path d="M94.784 28V29H95.784V28H94.784ZM91.2 28H90.2V29H91.2V28ZM91.2 13.9082V12.9082H90.2V13.9082H91.2ZM94.784 13.9082H95.784V12.9082H94.784V13.9082ZM94.784 28V27H91.2V28V29H94.784V28ZM91.2 28H92.2V13.9082H91.2H90.2V28H91.2ZM91.2 13.9082V14.9082H94.784V13.9082V12.9082H91.2V13.9082ZM94.784 13.9082H93.784V28H94.784H95.784V13.9082H94.784ZM97.5016 28H96.5016V29H97.5016V28ZM97.5016 17.1309V16.1309H96.5016V17.1309H97.5016ZM100.861 17.1309H101.861V16.1309H100.861V17.1309ZM100.861 18.8984H99.8609V19.8984H100.861V18.8984ZM101.046 18.8984V19.8984H101.731L101.978 19.2609L101.046 18.8984ZM108.185 28V29H109.185V28H108.185ZM104.728 28H103.728V29H104.728V28ZM100.949 28V29H101.949V28H100.949ZM97.5016 28H98.5016V17.1309H97.5016H96.5016V28H97.5016ZM97.5016 17.1309V18.1309H100.861V17.1309V16.1309H97.5016V17.1309ZM100.861 17.1309H99.8609V18.8984H100.861H101.861V17.1309H100.861ZM100.861 18.8984V19.8984H101.046V18.8984V17.8984H100.861V18.8984ZM101.046 18.8984L101.978 19.2609C102.277 18.4928 103.136 17.877 104.386 17.877V16.877V15.877C102.492 15.877 100.773 16.8431 100.114 18.536L101.046 18.8984ZM104.386 16.877V17.877C105.387 17.877 106.044 18.1794 106.46 18.629C106.886 19.0899 107.185 19.8423 107.185 20.9785H108.185H109.185C109.185 19.5073 108.796 18.2089 107.928 17.2709C107.05 16.3216 105.808 15.877 104.386 15.877V16.877ZM108.185 20.9785H107.185V28H108.185H109.185V20.9785H108.185ZM108.185 28V27H104.728V28V29H108.185V28ZM104.728 28H105.728V21.75H104.728H103.728V28H104.728ZM104.728 21.75H105.728C105.728 20.938 105.527 20.1549 105.001 19.5649C104.459 18.957 103.703 18.6992 102.902 18.6992V19.6992V20.6992C103.272 20.6992 103.43 20.8076 103.508 20.8956C103.602 21.0013 103.728 21.2436 103.728 21.75H104.728ZM102.902 19.6992V18.6992C102.069 18.6992 101.308 19.0062 100.76 19.5918C100.216 20.1719 99.9488 20.9523 99.9488 21.7891H100.949H101.949C101.949 21.3758 102.077 21.1113 102.219 20.959C102.357 20.8122 102.572 20.6992 102.902 20.6992V19.6992ZM100.949 21.7891H99.9488V28H100.949H101.949V21.7891H100.949ZM100.949 28V27H97.5016V28V29H100.949V28ZM119.799 20.2266V21.2266H120.859L120.798 20.1686L119.799 20.2266ZM116.655 20.2266L115.666 20.3786L115.797 21.2266H116.655V20.2266ZM114.77 21.1055L114.559 22.083L114.57 22.0852L114.77 21.1055ZM117.016 21.5645L117.222 20.5858L117.216 20.5847L117.016 21.5645ZM109.975 24.8848V23.8848H108.882L108.979 24.9737L109.975 24.8848ZM113.305 24.8848L114.273 24.6323L114.078 23.8848H113.305V24.8848ZM115.483 24.0645L115.692 23.0865L115.691 23.0863L115.483 24.0645ZM113.461 23.6348L113.253 24.6129L113.253 24.6129L113.461 23.6348ZM110.239 20.4023H111.239C111.239 19.6434 111.547 19.0593 112.122 18.6346C112.727 18.1874 113.691 17.877 115.014 17.877V16.877V15.877C113.408 15.877 111.984 16.2501 110.933 17.0261C109.853 17.8245 109.239 19.0031 109.239 20.4023H110.239ZM115.014 16.877V17.877C116.41 17.877 117.342 18.1501 117.913 18.5503C118.439 18.9192 118.753 19.4602 118.801 20.2845L119.799 20.2266L120.798 20.1686C120.718 18.8054 120.144 17.6716 119.061 16.9126C118.023 16.1848 116.625 15.877 115.014 15.877V16.877ZM119.799 20.2266V19.2266H116.655V20.2266V21.2266H119.799V20.2266ZM116.655 20.2266L117.643 20.0745C117.549 19.4652 117.211 18.963 116.702 18.6378C116.219 18.3295 115.635 18.2109 115.043 18.2109V19.2109V20.2109C115.389 20.2109 115.562 20.2828 115.626 20.3236C115.641 20.333 115.649 20.3403 115.653 20.3444C115.657 20.3483 115.659 20.3503 115.659 20.3505C115.659 20.3507 115.659 20.3517 115.661 20.3546C115.662 20.3577 115.664 20.3652 115.666 20.3786L116.655 20.2266ZM115.043 19.2109V18.2109C114.464 18.2109 113.881 18.3346 113.408 18.6358C112.912 18.9513 112.52 19.4858 112.52 20.1875H113.52H114.52C114.52 20.2264 114.507 20.2721 114.485 20.3086C114.466 20.3404 114.454 20.3405 114.482 20.3232C114.545 20.2826 114.724 20.2109 115.043 20.2109V19.2109ZM113.52 20.1875H112.52C112.52 20.7694 112.798 21.2409 113.235 21.5582C113.611 21.8313 114.089 21.9814 114.559 22.0829L114.77 21.1055L114.981 20.128C114.798 20.0884 114.662 20.0488 114.562 20.0117C114.462 19.974 114.419 19.9464 114.41 19.9399C114.405 19.9362 114.441 19.9614 114.475 20.0249C114.511 20.0919 114.52 20.1543 114.52 20.1875H113.52ZM114.77 21.1055L114.57 22.0852L116.816 22.5442L117.016 21.5645L117.216 20.5847L114.97 20.1257L114.77 21.1055ZM117.016 21.5645L116.81 22.5431C117.802 22.7514 118.353 23.0327 118.655 23.3257C118.918 23.5811 119.082 23.9329 119.082 24.5527H120.082H121.082C121.082 23.5222 120.783 22.6045 120.048 21.8906C119.351 21.2144 118.368 20.8267 117.222 20.5858L117.016 21.5645ZM120.082 24.5527H119.082C119.082 25.3516 118.747 25.9821 118.119 26.4435C117.463 26.9256 116.436 27.2539 115.063 27.2539V28.2539V29.2539C116.727 29.2539 118.209 28.8595 119.304 28.055C120.426 27.2299 121.082 26.0097 121.082 24.5527H120.082ZM115.063 28.2539V27.2539C113.612 27.2539 112.61 26.9758 111.976 26.5561C111.386 26.1645 111.043 25.604 110.971 24.7958L109.975 24.8848L108.979 24.9737C109.102 26.353 109.746 27.4771 110.871 28.2232C111.955 28.9412 113.398 29.2539 115.063 29.2539V28.2539ZM109.975 24.8848V25.8848H113.305V24.8848V23.8848H109.975V24.8848ZM113.305 24.8848L112.337 25.1372C112.493 25.7344 112.86 26.2137 113.394 26.5213C113.899 26.8127 114.498 26.9199 115.112 26.9199V25.9199V24.9199C114.71 24.9199 114.493 24.8465 114.393 24.7887C114.321 24.7472 114.293 24.709 114.273 24.6323L113.305 24.8848ZM115.112 25.9199V26.9199C115.702 26.9199 116.294 26.8039 116.774 26.5066C117.284 26.191 117.674 25.6543 117.674 24.9531H116.674H115.674C115.674 24.917 115.686 24.8693 115.711 24.8283C115.733 24.7921 115.748 24.7896 115.722 24.8059C115.658 24.8455 115.469 24.9199 115.112 24.9199V25.9199ZM116.674 24.9531H117.674C117.674 24.4278 117.46 23.9473 117.004 23.6056C116.632 23.3274 116.153 23.185 115.692 23.0865L115.483 24.0645L115.274 25.0424C115.463 25.0828 115.597 25.1211 115.69 25.1554C115.785 25.1902 115.812 25.2118 115.805 25.2069C115.792 25.1966 115.746 25.1569 115.71 25.083C115.676 25.0112 115.674 24.9574 115.674 24.9531H116.674ZM115.483 24.0645L115.691 23.0863L113.669 22.6566L113.461 23.6348L113.253 24.6129L115.275 25.0426L115.483 24.0645ZM113.461 23.6348L113.669 22.6566C112.697 22.4498 112.098 22.1314 111.749 21.781C111.425 21.4562 111.239 21.0293 111.239 20.4023H110.239H109.239C109.239 21.4843 109.585 22.4442 110.333 23.1936C111.055 23.9174 112.068 24.3607 113.253 24.6129L113.461 23.6348ZM131.921 21.1543V22.1543H133.005L132.918 21.074L131.921 21.1543ZM128.747 21.1543L127.758 21.2971L127.881 22.1543H128.747V21.1543ZM128.747 24.0547V23.0547H127.889L127.759 23.9026L128.747 24.0547ZM131.921 24.0547L132.918 24.1334L133.003 23.0547H131.921V24.0547ZM131.921 21.1543V20.1543H128.747V21.1543V22.1543H131.921V21.1543ZM128.747 21.1543L129.737 21.0115C129.639 20.335 129.366 19.6943 128.847 19.2227C128.322 18.7455 127.646 18.5332 126.921 18.5332V19.5332V20.5332C127.251 20.5332 127.415 20.6237 127.502 20.7031C127.596 20.7881 127.709 20.958 127.758 21.2971L128.747 21.1543ZM126.921 19.5332V18.5332C125.959 18.5332 125.12 18.9153 124.571 19.7283C124.069 20.4722 123.89 21.4625 123.89 22.5508H124.89H125.89C125.89 21.6273 126.052 21.1088 126.229 20.8469C126.359 20.654 126.536 20.5332 126.921 20.5332V19.5332ZM124.89 22.5508H123.89C123.89 23.65 124.072 24.6456 124.573 25.3929C125.12 26.2085 125.958 26.5977 126.921 26.5977V25.5977V24.5977C126.547 24.5977 126.368 24.479 126.234 24.2789C126.054 24.0106 125.89 23.4828 125.89 22.5508H124.89ZM126.921 25.5977V26.5977C127.607 26.5977 128.274 26.4211 128.808 25.9723C129.344 25.5212 129.63 24.8915 129.736 24.2067L128.747 24.0547L127.759 23.9026C127.708 24.2335 127.599 24.3753 127.52 24.4418C127.438 24.5106 127.271 24.5977 126.921 24.5977V25.5977ZM128.747 24.0547V25.0547H131.921V24.0547V23.0547H128.747V24.0547ZM131.921 24.0547L130.924 23.976C130.84 25.0461 130.429 25.8352 129.804 26.3655C129.169 26.9034 128.218 27.2539 126.921 27.2539V28.2539V29.2539C128.574 29.2539 130.02 28.8036 131.097 27.8913C132.182 26.9714 132.797 25.6609 132.918 24.1334L131.921 24.0547ZM126.921 28.2539V27.2539C125.311 27.2539 124.232 26.8099 123.548 26.1002C122.859 25.3843 122.423 24.2444 122.423 22.5508H121.423H120.423C120.423 24.5681 120.944 26.2797 122.108 27.4877C123.277 28.7018 124.947 29.2539 126.921 29.2539V28.2539ZM121.423 22.5508H122.423C122.423 20.8683 122.858 19.7363 123.547 19.0251C124.23 18.3193 125.309 17.877 126.921 17.877V16.877V15.877C124.949 15.877 123.279 16.4258 122.11 17.634C120.945 18.8369 120.423 20.5419 120.423 22.5508H121.423ZM126.921 16.877V17.877C128.244 17.877 129.186 18.2306 129.809 18.7712C130.426 19.3058 130.834 20.1134 130.924 21.2346L131.921 21.1543L132.918 21.074C132.793 19.5292 132.201 18.1981 131.12 17.2605C130.046 16.329 128.596 15.877 126.921 15.877V16.877ZM133.711 28H132.711V29H133.711V28ZM133.711 17.1309V16.1309H132.711V17.1309H133.711ZM137.07 17.1309H138.07V16.1309H137.07V17.1309ZM137.07 18.918H136.07V19.918H137.07V18.918ZM137.256 18.918V19.918H138.043L138.228 19.1523L137.256 18.918ZM141.113 17.1309H142.113V16.4585L141.491 16.2048L141.113 17.1309ZM141.113 20.0703L140.736 20.9964L142.113 21.5575V20.0703H141.113ZM137.158 28V29H138.158V28H137.158ZM133.711 28H134.711V17.1309H133.711H132.711V28H133.711ZM133.711 17.1309V18.1309H137.07V17.1309V16.1309H133.711V17.1309ZM137.07 17.1309H136.07V18.918H137.07H138.07V17.1309H137.07ZM137.07 18.918V19.918H137.256V18.918V17.918H137.07V18.918ZM137.256 18.918L138.228 19.1523C138.377 18.5339 139.009 17.9648 139.893 17.9648V16.9648V15.9648C138.14 15.9648 136.662 17.1145 136.284 18.6836L137.256 18.918ZM139.893 16.9648V17.9648C140.066 17.9648 140.263 17.9769 140.438 17.9994C140.525 18.0106 140.598 18.0233 140.656 18.0361C140.718 18.0498 140.741 18.059 140.736 18.057L141.113 17.1309L141.491 16.2048C141.237 16.1013 140.936 16.0469 140.693 16.0157C140.43 15.982 140.149 15.9648 139.893 15.9648V16.9648ZM141.113 17.1309H140.113V20.0703H141.113H142.113V17.1309H141.113ZM141.113 20.0703L141.491 19.1442C141.224 19.0356 140.85 18.9753 140.579 18.9405C140.273 18.9013 139.931 18.875 139.658 18.875V19.875V20.875C139.824 20.875 140.078 20.8927 140.324 20.9242C140.445 20.9397 140.552 20.9571 140.637 20.9743C140.734 20.9941 140.757 21.0051 140.736 20.9964L141.113 20.0703ZM139.658 19.875V18.875C138.724 18.875 137.835 19.1453 137.17 19.7587C136.494 20.3822 136.158 21.2597 136.158 22.248H137.158H138.158C138.158 21.7228 138.326 21.4137 138.526 21.2291C138.737 21.0344 139.098 20.875 139.658 20.875V19.875ZM137.158 22.248H136.158V28H137.158H138.158V22.248H137.158ZM137.158 28V27H133.711V28V29H137.158V28ZM142.708 28H141.708V29H142.708V28ZM142.708 17.1309V16.1309H141.708V17.1309H142.708ZM146.165 17.1309H147.165V16.1309H146.165V17.1309ZM146.165 28V29H147.165V28H146.165ZM142.708 28H143.708V17.1309H142.708H141.708V28H142.708ZM142.708 17.1309V18.1309H146.165V17.1309V16.1309H142.708V17.1309ZM146.165 17.1309H145.165V28H146.165H147.165V17.1309H146.165ZM146.165 28V27H142.708V28V29H146.165V28ZM144.436 15.8711V14.8711C143.99 14.8711 143.747 14.7573 143.637 14.669C143.548 14.5981 143.493 14.5066 143.493 14.3379H142.493H141.493C141.493 15.0872 141.804 15.7622 142.384 16.2285C142.943 16.6772 143.672 16.8711 144.436 16.8711V15.8711ZM142.493 14.3379H143.493C143.493 14.161 143.551 14.0673 143.638 13.9969C143.748 13.9087 143.99 13.7949 144.436 13.7949V12.7949V11.7949C143.672 11.7949 142.942 11.9888 142.383 12.4401C141.801 12.9092 141.493 13.5871 141.493 14.3379H142.493ZM144.436 12.7949V13.7949C144.889 13.7949 145.134 13.9095 145.244 13.998C145.332 14.0683 145.389 14.1612 145.389 14.3379H146.389H147.389C147.389 13.5868 147.081 12.9083 146.497 12.439C145.936 11.9879 145.204 11.7949 144.436 11.7949V12.7949ZM146.389 14.3379H145.389C145.389 14.5063 145.334 14.5972 145.246 14.6679C145.135 14.7565 144.889 14.8711 144.436 14.8711V15.8711V16.8711C145.204 16.8711 145.935 16.6781 146.495 16.2296C147.078 15.7632 147.389 15.0874 147.389 14.3379H146.389ZM152.222 26.3008L153.137 25.8968L152.874 25.3008H152.222V26.3008ZM152.037 26.3008V25.3008H151.037V26.3008H152.037ZM152.037 28V29H153.037V28H152.037ZM148.677 28H147.677V29H148.677V28ZM148.677 13.0586V12.0586H147.677V13.0586H148.677ZM152.125 13.0586H153.125V12.0586H152.125V13.0586ZM152.125 18.8789H151.125V19.8789H152.125V18.8789ZM152.31 18.8789V19.8789H152.965L153.227 19.2782L152.31 18.8789ZM152.105 22.5703L151.105 22.5648L151.105 22.5758L152.105 22.5703ZM155.504 28.166V27.166C154.256 27.166 153.457 26.6223 153.137 25.8968L152.222 26.3008L151.308 26.7048C152.022 28.3231 153.665 29.166 155.504 29.166V28.166ZM152.222 26.3008V25.3008H152.037V26.3008V27.3008H152.222V26.3008ZM152.037 26.3008H151.037V28H152.037H153.037V26.3008H152.037ZM152.037 28V27H148.677V28V29H152.037V28ZM148.677 28H149.677V13.0586H148.677H147.677V28H148.677ZM148.677 13.0586V14.0586H152.125V13.0586V12.0586H148.677V13.0586ZM152.125 13.0586H151.125V18.8789H152.125H153.125V13.0586H152.125ZM152.125 18.8789V19.8789H152.31V18.8789V17.8789H152.125V18.8789ZM152.31 18.8789L153.227 19.2782C153.571 18.4886 154.342 17.9648 155.504 17.9648V16.9648V15.9648C153.677 15.9648 152.104 16.8473 151.393 18.4796L152.31 18.8789ZM155.504 16.9648V17.9648C156.606 17.9648 157.383 18.3606 157.913 19.0454C158.471 19.7659 158.839 20.9192 158.839 22.5605H159.839H160.839C160.839 20.6569 160.417 19.0124 159.495 17.8213C158.546 16.5945 157.155 15.9648 155.504 15.9648V16.9648ZM159.839 22.5605H158.839C158.839 24.187 158.466 25.3451 157.902 26.0733C157.365 26.7682 156.584 27.166 155.504 27.166V28.166V29.166C157.148 29.166 158.535 28.5238 159.484 27.2973C160.407 26.1042 160.839 24.4595 160.839 22.5605H159.839ZM154.214 19.6797V18.6797C153.245 18.6797 152.422 19.1154 151.872 19.8693C151.346 20.5908 151.111 21.5405 151.105 22.5648L152.105 22.5703L153.105 22.5758C153.109 21.8228 153.284 21.3271 153.488 21.0477C153.668 20.8006 153.895 20.6797 154.214 20.6797V19.6797ZM152.105 22.5703L151.105 22.5758C151.111 23.5976 151.342 24.5462 151.869 25.2671C152.42 26.022 153.245 26.4512 154.214 26.4512V25.4512V24.4512C153.885 24.4512 153.66 24.3286 153.484 24.0874C153.283 23.8122 153.109 23.3203 153.105 22.5648L152.105 22.5703ZM154.214 25.4512V26.4512C155.183 26.4512 156.004 26.0188 156.55 25.2597C157.07 24.5362 157.295 23.5851 157.295 22.5605H156.295H155.295C155.295 23.3231 155.124 23.8173 154.926 24.0923C154.754 24.3318 154.535 24.4512 154.214 24.4512V25.4512ZM156.295 22.5605H157.295C157.295 21.5411 157.066 20.5936 156.545 19.8723C156.001 19.1182 155.182 18.6797 154.214 18.6797V19.6797V20.6797C154.526 20.6797 154.747 20.7979 154.923 21.0423C155.123 21.3195 155.295 21.8124 155.295 22.5605H156.295ZM161.698 28H160.698V29H161.698V28ZM161.698 17.1309V16.1309H160.698V17.1309H161.698ZM165.155 17.1309H166.155V16.1309H165.155V17.1309ZM165.155 28V29H166.155V28H165.155ZM161.698 28H162.698V17.1309H161.698H160.698V28H161.698ZM161.698 17.1309V18.1309H165.155V17.1309V16.1309H161.698V17.1309ZM165.155 17.1309H164.155V28H165.155H166.155V17.1309H165.155ZM165.155 28V27H161.698V28V29H165.155V28ZM163.426 15.8711V14.8711C162.98 14.8711 162.737 14.7573 162.626 14.669C162.538 14.5981 162.483 14.5066 162.483 14.3379H161.483H160.483C160.483 15.0872 160.794 15.7622 161.374 16.2285C161.933 16.6772 162.661 16.8711 163.426 16.8711V15.8711ZM161.483 14.3379H162.483C162.483 14.161 162.541 14.0673 162.628 13.9969C162.738 13.9087 162.98 13.7949 163.426 13.7949V12.7949V11.7949C162.662 11.7949 161.932 11.9888 161.373 12.4401C160.791 12.9092 160.483 13.5871 160.483 14.3379H161.483ZM163.426 12.7949V13.7949C163.879 13.7949 164.124 13.9095 164.234 13.998C164.322 14.0683 164.379 14.1612 164.379 14.3379H165.379H166.379C166.379 13.5868 166.071 12.9083 165.487 12.439C164.926 11.9879 164.194 11.7949 163.426 11.7949V12.7949ZM165.379 14.3379H164.379C164.379 14.5063 164.324 14.5972 164.236 14.6679C164.125 14.7565 163.879 14.8711 163.426 14.8711V15.8711V16.8711C164.194 16.8711 164.925 16.6781 165.485 16.2296C166.068 15.7632 166.379 15.0874 166.379 14.3379H165.379ZM167.57 28H166.57V29H167.57V28ZM167.57 17.1309V16.1309H166.57V17.1309H167.57ZM170.929 17.1309H171.929V16.1309H170.929V17.1309ZM170.929 18.918H169.929V19.918H170.929V18.918ZM171.114 18.918V19.918H171.902L172.087 19.1523L171.114 18.918ZM174.972 17.1309H175.972V16.4585L175.349 16.2048L174.972 17.1309ZM174.972 20.0703L174.595 20.9964L175.972 21.5575V20.0703H174.972ZM171.017 28V29H172.017V28H171.017ZM167.57 28H168.57V17.1309H167.57H166.57V28H167.57ZM167.57 17.1309V18.1309H170.929V17.1309V16.1309H167.57V17.1309ZM170.929 17.1309H169.929V18.918H170.929H171.929V17.1309H170.929ZM170.929 18.918V19.918H171.114V18.918V17.918H170.929V18.918ZM171.114 18.918L172.087 19.1523C172.236 18.5339 172.867 17.9648 173.751 17.9648V16.9648V15.9648C171.998 15.9648 170.521 17.1145 170.142 18.6836L171.114 18.918ZM173.751 16.9648V17.9648C173.925 17.9648 174.121 17.9769 174.296 17.9994C174.383 18.0106 174.457 18.0233 174.515 18.0361C174.577 18.0498 174.6 18.059 174.595 18.057L174.972 17.1309L175.349 16.2048C175.095 16.1013 174.794 16.0469 174.551 16.0157C174.289 15.982 174.007 15.9648 173.751 15.9648V16.9648ZM174.972 17.1309H173.972V20.0703H174.972H175.972V17.1309H174.972ZM174.972 20.0703L175.349 19.1442C175.082 19.0356 174.709 18.9753 174.438 18.9405C174.132 18.9013 173.79 18.875 173.517 18.875V19.875V20.875C173.683 20.875 173.937 20.8927 174.183 20.9242C174.304 20.9397 174.411 20.9571 174.495 20.9743C174.592 20.9941 174.616 21.0051 174.595 20.9964L174.972 20.0703ZM173.517 19.875V18.875C172.583 18.875 171.694 19.1453 171.029 19.7587C170.352 20.3822 170.017 21.2597 170.017 22.248H171.017H172.017C172.017 21.7228 172.184 21.4137 172.384 21.2291C172.596 21.0344 172.957 20.875 173.517 20.875V19.875ZM171.017 22.248H170.017V28H171.017H172.017V22.248H171.017ZM171.017 28V27H167.57V28V29H171.017V28Z" fill="#542CB3" mask="url(#path-3-outside-1_23_29)"/>
<defs>
<filter id="filter0_d_23_29" x="0" y="0" width="265" height="51" filterUnits="userSpaceOnUse" color-interpolation-filters="sRGB">
<feFlood flood-opacity="0" result="BackgroundImageFix"/>
<feColorMatrix in="SourceAlpha" type="matrix" values="0 0 0 0 0 0 0 0 0 0 0 0 0 0 0 0 0 0 127 0" result="hardAlpha"/>
<feOffset dy="4"/>
<feGaussianBlur stdDeviation="2"/>
<feComposite in2="hardAlpha" operator="out"/>
<feColorMatrix type="matrix" values="0 0 0 0 0 0 0 0 0 0 0 0 0 0 0 0 0 0 0.25 0"/>
<feBlend mode="normal" in2="BackgroundImageFix" result="effect1_dropShadow_23_29"/>
<feBlend mode="normal" in="SourceGraphic" in2="effect1_dropShadow_23_29" result="shape"/>
</filter>
</defs>
</svg>
