<svg width="265" height="51" viewBox="0 0 265 51" fill="none" xmlns="http://www.w3.org/2000/svg">
<g filter="url(#filter0_d_60_61)">
<rect x="4" width="257" height="43" rx="5" fill="#542CB3" shape-rendering="crispEdges"/>
<rect x="4.5" y="0.5" width="256" height="42" rx="4.5" stroke="#542CB3" shape-rendering="crispEdges"/>
<path d="M68.3527 17.1133V21.0391H70.4719C71.7902 21.0391 72.5715 20.3066 72.5715 19.0859C72.5715 17.8848 71.7414 17.1133 70.4621 17.1133H68.3527ZM68.3527 23.5684V28.5H64.7688V14.4082H70.9699C74.2609 14.4082 76.2336 16.1465 76.2336 19.0566C76.2336 20.7852 75.3742 22.3672 73.8313 23.041L76.6438 28.5H72.6203L70.2082 23.5684H68.3527ZM82.9941 19.8281C81.8613 19.8281 81.0703 20.6191 80.9824 21.8496H84.9277C84.8691 20.5801 84.1465 19.8281 82.9941 19.8281ZM85.0547 25.2969H88.209C87.8281 27.416 85.8359 28.7539 83.0234 28.7539C79.5566 28.7539 77.5645 26.7031 77.5645 23.1387C77.5645 19.5547 79.6055 17.377 82.9746 17.377C86.3242 17.377 88.2773 19.4082 88.2773 22.875V23.832H80.9629V24.0078C80.9922 25.4238 81.8027 26.3027 83.1211 26.3027C84.127 26.3027 84.8203 25.9316 85.0547 25.2969ZM97.284 23.002C97.284 21.2539 96.493 20.1797 95.1746 20.1797C93.866 20.1797 93.0945 21.2539 93.0945 22.9922C93.0945 24.7305 93.8563 25.8047 95.1746 25.8047C96.5027 25.8047 97.284 24.7402 97.284 23.002ZM95.077 32.5918C92.0496 32.5918 90.0086 31.293 89.8719 29.3398H93.2313C93.3582 29.9258 94.0906 30.2969 95.1746 30.2969C96.5027 30.2969 97.2645 29.6719 97.2645 28.5977V26.6348H97.0789C96.5223 27.7578 95.4188 28.3438 93.8758 28.3438C91.2098 28.3438 89.5496 26.2734 89.5496 23.002C89.5496 19.584 91.2098 17.4648 93.9539 17.4648C95.3992 17.4648 96.6199 18.1875 97.1668 19.3789H97.3523V17.6309H100.721V28.373C100.721 30.9609 98.534 32.5918 95.077 32.5918ZM103.107 28.5V17.6309H106.564V28.5H103.107ZM104.836 16.3711C103.625 16.3711 102.892 15.7559 102.892 14.8379C102.892 13.9102 103.625 13.2949 104.836 13.2949C106.056 13.2949 106.789 13.9102 106.789 14.8379C106.789 15.7559 106.056 16.3711 104.836 16.3711ZM108.735 20.9023C108.735 18.7441 110.58 17.377 113.51 17.377C116.518 17.377 118.168 18.5391 118.295 20.7266H115.151C115.053 20.0918 114.477 19.7109 113.539 19.7109C112.641 19.7109 112.016 20.1016 112.016 20.6875C112.016 21.1465 112.407 21.4199 113.266 21.6055L115.512 22.0645C117.651 22.5137 118.579 23.4023 118.579 25.0527C118.579 27.3086 116.596 28.7539 113.559 28.7539C110.444 28.7539 108.666 27.5723 108.471 25.3848H111.801C111.977 26.0586 112.592 26.4199 113.608 26.4199C114.555 26.4199 115.17 26.0391 115.17 25.4531C115.17 24.9941 114.848 24.75 113.979 24.5645L111.957 24.1348C109.799 23.6758 108.735 22.6113 108.735 20.9023ZM121.316 15.1699H124.763V17.7773H126.98V20.3457H124.763V24.75C124.763 25.5703 125.183 25.9707 126.081 25.9707C126.482 25.9707 126.696 25.9512 126.95 25.9219V28.3828C126.579 28.4609 125.954 28.5195 125.3 28.5195C122.439 28.5195 121.316 27.6504 121.316 25.5215V20.3457H119.636V17.7773H121.316V15.1699ZM128.926 28.5V17.6309H132.285V19.418H132.471C132.734 18.3242 133.789 17.4648 135.107 17.4648C135.537 17.4648 136.064 17.5234 136.328 17.6309V20.5703C136.064 20.4629 135.312 20.375 134.873 20.375C133.379 20.375 132.373 21.2344 132.373 22.748V28.5H128.926ZM141.77 26.2539C142.864 26.2539 143.714 25.5312 143.714 24.5938V23.8809L141.888 23.998C140.862 24.0762 140.325 24.4766 140.325 25.1309C140.325 25.8242 140.901 26.2539 141.77 26.2539ZM140.511 28.666C138.421 28.666 136.995 27.3672 136.995 25.375C136.995 23.3926 138.538 22.2402 141.341 22.0742L143.714 21.9375V21.0879C143.714 20.3555 143.167 19.916 142.21 19.916C141.302 19.916 140.716 20.2188 140.491 20.7949H137.386C137.542 18.6855 139.466 17.377 142.405 17.377C145.403 17.377 147.112 18.7441 147.112 21.0879V28.5H143.753V27.1523H143.567C143.079 28.0801 141.888 28.666 140.511 28.666ZM153.267 28.666C150.543 28.666 148.902 26.5371 148.902 23.041C148.902 19.5742 150.552 17.4648 153.267 17.4648C154.722 17.4648 155.894 18.1777 156.431 19.3789H156.617V13.5586H160.074V28.5H156.705V26.8008H156.519C155.982 27.9727 154.781 28.666 153.267 28.666ZM154.537 20.1797C153.228 20.1797 152.447 21.2734 152.447 23.0605C152.447 24.8672 153.218 25.9512 154.537 25.9512C155.855 25.9512 156.636 24.8672 156.636 23.0703C156.636 21.2832 155.845 20.1797 154.537 20.1797ZM167.557 26.1172C168.827 26.1172 169.549 24.9941 169.549 23.0605C169.549 21.166 168.807 20.0137 167.557 20.0137C166.307 20.0137 165.565 21.166 165.565 23.0605C165.565 25.0039 166.288 26.1172 167.557 26.1172ZM167.557 28.7539C164.08 28.7539 162.02 26.6348 162.02 23.0605C162.02 19.5449 164.139 17.377 167.557 17.377C170.995 17.377 173.094 19.5254 173.094 23.0605C173.094 26.6445 171.043 28.7539 167.557 28.7539ZM174.952 28.5V17.6309H178.312V19.418H178.497C178.761 18.3242 179.816 17.4648 181.134 17.4648C181.564 17.4648 182.091 17.5234 182.355 17.6309V20.5703C182.091 20.4629 181.339 20.375 180.9 20.375C179.405 20.375 178.4 21.2344 178.4 22.748V28.5H174.952ZM185.697 31.1758H182.465L186.381 14.4082H189.672L185.697 31.1758ZM195.27 26.2539C196.364 26.2539 197.214 25.5312 197.214 24.5938V23.8809L195.388 23.998C194.362 24.0762 193.825 24.4766 193.825 25.1309C193.825 25.8242 194.401 26.2539 195.27 26.2539ZM194.011 28.666C191.921 28.666 190.495 27.3672 190.495 25.375C190.495 23.3926 192.038 22.2402 194.841 22.0742L197.214 21.9375V21.0879C197.214 20.3555 196.667 19.916 195.71 19.916C194.802 19.916 194.216 20.2188 193.991 20.7949H190.886C191.042 18.6855 192.966 17.377 195.905 17.377C198.903 17.377 200.612 18.7441 200.612 21.0879V28.5H197.253V27.1523H197.067C196.579 28.0801 195.388 28.666 194.011 28.666Z" fill="white"/>
</g>
<defs>
<filter id="filter0_d_60_61" x="0" y="0" width="265" height="51" filterUnits="userSpaceOnUse" color-interpolation-filters="sRGB">
<feFlood flood-opacity="0" result="BackgroundImageFix"/>
<feColorMatrix in="SourceAlpha" type="matrix" values="0 0 0 0 0 0 0 0 0 0 0 0 0 0 0 0 0 0 127 0" result="hardAlpha"/>
<feOffset dy="4"/>
<feGaussianBlur stdDeviation="2"/>
<feComposite in2="hardAlpha" operator="out"/>
<feColorMatrix type="matrix" values="0 0 0 0 0 0 0 0 0 0 0 0 0 0 0 0 0 0 0.25 0"/>
<feBlend mode="normal" in2="BackgroundImageFix" result="effect1_dropShadow_60_61"/>
<feBlend mode="normal" in="SourceGraphic" in2="effect1_dropShadow_60_61" result="shape"/>
</filter>
</defs>
</svg>
