<svg width="265" height="51" viewBox="0 0 265 51" fill="none" xmlns="http://www.w3.org/2000/svg">
<g filter="url(#filter0_d_108_3)">
<rect x="4" width="257" height="43" rx="5" fill="#542CB3"/>
<rect x="4.5" y="0.5" width="256" height="42" rx="4.5" stroke="#542CB3"/>
</g>
<path d="M74.2832 25.1191V28H64.625V13.9082H74.2832V16.7891H68.209V19.6016H73.9219V22.2383H68.209V25.1191H74.2832ZM86.6102 25.041V28H77.0398V13.9082H80.6238V25.041H86.6102ZM90.8121 30.6758H87.5797L91.4957 13.9082H94.7867L90.8121 30.6758ZM106.205 25.041V28H96.6352V13.9082H100.219V25.041H106.205ZM117.517 28L116.638 24.9043H112.038L111.13 28H107.575L112.302 13.9082H116.687L121.423 28H117.517ZM114.265 17.082L112.722 22.3262H115.964L114.45 17.082H114.265ZM137.093 28L136.214 24.9043H131.614L130.706 28H127.151L131.878 13.9082H136.262L140.999 28H137.093ZM133.841 17.082L132.298 22.3262H135.54L134.026 17.082H133.841ZM143.072 13.8984H148.99C153.189 13.8984 155.582 16.4082 155.582 20.8125C155.582 25.4414 153.228 28 148.99 28H143.072V13.8984ZM146.656 16.7793V25.1191H148.345C150.67 25.1191 151.929 23.6738 151.929 20.8809C151.929 18.2539 150.601 16.7793 148.345 16.7793H146.656ZM161.258 28H157.948V13.9082H162.176L165.594 22.5215H165.78L169.188 13.9082H173.416V28H170.106V19.1035H169.93L166.795 26.916H164.579L161.434 19.1035H161.258V28ZM180.021 28H176.437V13.9082H180.021V28ZM186.449 28H183.051V13.9082H185.912L191.781 21.8379H191.967V13.9082H195.365V28H192.523L186.635 19.9922H186.449V28Z" fill="white"/>
<defs>
<filter id="filter0_d_108_3" x="0" y="0" width="265" height="51" filterUnits="userSpaceOnUse" color-interpolation-filters="sRGB">
<feFlood flood-opacity="0" result="BackgroundImageFix"/>
<feColorMatrix in="SourceAlpha" type="matrix" values="0 0 0 0 0 0 0 0 0 0 0 0 0 0 0 0 0 0 127 0" result="hardAlpha"/>
<feOffset dy="4"/>
<feGaussianBlur stdDeviation="2"/>
<feComposite in2="hardAlpha" operator="out"/>
<feColorMatrix type="matrix" values="0 0 0 0 0 0 0 0 0 0 0 0 0 0 0 0 0 0 0.25 0"/>
<feBlend mode="normal" in2="BackgroundImageFix" result="effect1_dropShadow_108_3"/>
<feBlend mode="normal" in="SourceGraphic" in2="effect1_dropShadow_108_3" result="shape"/>
</filter>
</defs>
</svg>
