<svg width="265" height="51" viewBox="0 0 265 51" fill="none" xmlns="http://www.w3.org/2000/svg">
<g filter="url(#filter0_d_108_4)">
<rect x="4" width="257" height="43" rx="5" fill="#542CB3"/>
<rect x="4.5" y="0.5" width="256" height="42" rx="4.5" stroke="#542CB3"/>
</g>
<path d="M74.6789 28.3809C70.4602 28.3809 67.8625 25.5488 67.8625 20.9492C67.8625 16.3496 70.4504 13.5273 74.6789 13.5273C78.2238 13.5273 80.9094 15.8906 81.0168 19.084H77.5695C77.384 17.5508 76.2219 16.5156 74.6789 16.5156C72.716 16.5156 71.5148 18.1953 71.5148 20.9395C71.5148 23.6934 72.716 25.3926 74.6887 25.3926C76.2316 25.3926 77.384 24.3965 77.5891 22.8828H81.0266C80.9094 26.1055 78.2922 28.3809 74.6789 28.3809ZM87.2305 25.7539C88.3242 25.7539 89.1738 25.0312 89.1738 24.0938V23.3809L87.3477 23.498C86.3223 23.5762 85.7852 23.9766 85.7852 24.6309C85.7852 25.3242 86.3613 25.7539 87.2305 25.7539ZM85.9707 28.166C83.8809 28.166 82.4551 26.8672 82.4551 24.875C82.4551 22.8926 83.9981 21.7402 86.8008 21.5742L89.1738 21.4375V20.5879C89.1738 19.8555 88.627 19.416 87.6699 19.416C86.7617 19.416 86.1758 19.7188 85.9512 20.2949H82.8457C83.002 18.1855 84.9258 16.877 87.8652 16.877C90.8633 16.877 92.5723 18.2441 92.5723 20.5879V28H89.2129V26.6523H89.0273C88.5391 27.5801 87.3477 28.166 85.9707 28.166ZM94.9969 28V13.0586H98.4441V28H94.9969ZM100.947 28V17.1309H104.404V28H100.947ZM102.675 15.8711C101.464 15.8711 100.732 15.2559 100.732 14.3379C100.732 13.4102 101.464 12.7949 102.675 12.7949C103.896 12.7949 104.629 13.4102 104.629 14.3379C104.629 15.2559 103.896 15.8711 102.675 15.8711ZM107.678 28V19.8457H105.998V17.2773H107.678V16.1738C107.678 13.9863 108.801 13.1367 111.594 13.1367C112.151 13.1367 112.766 13.1855 113.225 13.2539V15.5293C113.02 15.4902 112.668 15.4609 112.307 15.4609C111.438 15.4609 111.038 15.7734 111.038 16.4473V17.2773H113.215V19.8457H111.125V28H107.678ZM115.171 28V17.1309H118.628V28H115.171ZM116.9 15.8711C115.689 15.8711 114.956 15.2559 114.956 14.3379C114.956 13.4102 115.689 12.7949 116.9 12.7949C118.12 12.7949 118.853 13.4102 118.853 14.3379C118.853 15.2559 118.12 15.8711 116.9 15.8711ZM131.004 21.1543H127.83C127.684 20.1387 127.059 19.5332 126.004 19.5332C124.656 19.5332 123.973 20.5391 123.973 22.5508C123.973 24.582 124.666 25.5977 126.004 25.5977C127.039 25.5977 127.674 25.0703 127.83 24.0547H131.004C130.799 26.6523 128.953 28.2539 126.004 28.2539C122.42 28.2539 120.506 26.2617 120.506 22.5508C120.506 18.8594 122.42 16.877 126.004 16.877C129.002 16.877 130.789 18.4883 131.004 21.1543ZM137.013 25.7539C138.106 25.7539 138.956 25.0312 138.956 24.0938V23.3809L137.13 23.498C136.104 23.5762 135.567 23.9766 135.567 24.6309C135.567 25.3242 136.143 25.7539 137.013 25.7539ZM135.753 28.166C133.663 28.166 132.237 26.8672 132.237 24.875C132.237 22.8926 133.78 21.7402 136.583 21.5742L138.956 21.4375V20.5879C138.956 19.8555 138.409 19.416 137.452 19.416C136.544 19.416 135.958 19.7188 135.733 20.2949H132.628C132.784 18.1855 134.708 16.877 137.647 16.877C140.645 16.877 142.354 18.2441 142.354 20.5879V28H138.995V26.6523H138.809C138.321 27.5801 137.13 28.166 135.753 28.166ZM148.509 28.166C145.785 28.166 144.144 26.0371 144.144 22.541C144.144 19.0742 145.795 16.9648 148.509 16.9648C149.964 16.9648 151.136 17.6777 151.673 18.8789H151.859V13.0586H155.316V28H151.947V26.3008H151.761C151.224 27.4727 150.023 28.166 148.509 28.166ZM149.779 19.6797C148.47 19.6797 147.689 20.7734 147.689 22.5605C147.689 24.3672 148.461 25.4512 149.779 25.4512C151.097 25.4512 151.879 24.3672 151.879 22.5703C151.879 20.7832 151.088 19.6797 149.779 19.6797ZM162.799 25.6172C164.069 25.6172 164.791 24.4941 164.791 22.5605C164.791 20.666 164.049 19.5137 162.799 19.5137C161.549 19.5137 160.807 20.666 160.807 22.5605C160.807 24.5039 161.53 25.6172 162.799 25.6172ZM162.799 28.2539C159.323 28.2539 157.262 26.1348 157.262 22.5605C157.262 19.0449 159.381 16.877 162.799 16.877C166.237 16.877 168.336 19.0254 168.336 22.5605C168.336 26.1445 166.286 28.2539 162.799 28.2539ZM170.195 28V17.1309H173.554V18.918H173.739C174.003 17.8242 175.058 16.9648 176.376 16.9648C176.806 16.9648 177.333 17.0234 177.597 17.1309V20.0703C177.333 19.9629 176.581 19.875 176.142 19.875C174.648 19.875 173.642 20.7344 173.642 22.248V28H170.195ZM180.939 30.6758H177.707L181.623 13.9082H184.914L180.939 30.6758ZM190.513 25.7539C191.606 25.7539 192.456 25.0312 192.456 24.0938V23.3809L190.63 23.498C189.604 23.5762 189.067 23.9766 189.067 24.6309C189.067 25.3242 189.643 25.7539 190.513 25.7539ZM189.253 28.166C187.163 28.166 185.737 26.8672 185.737 24.875C185.737 22.8926 187.28 21.7402 190.083 21.5742L192.456 21.4375V20.5879C192.456 19.8555 191.909 19.416 190.952 19.416C190.044 19.416 189.458 19.7188 189.233 20.2949H186.128C186.284 18.1855 188.208 16.877 191.147 16.877C194.145 16.877 195.854 18.2441 195.854 20.5879V28H192.495V26.6523H192.309C191.821 27.5801 190.63 28.166 189.253 28.166Z" fill="white"/>
<defs>
<filter id="filter0_d_108_4" x="0" y="0" width="265" height="51" filterUnits="userSpaceOnUse" color-interpolation-filters="sRGB">
<feFlood flood-opacity="0" result="BackgroundImageFix"/>
<feColorMatrix in="SourceAlpha" type="matrix" values="0 0 0 0 0 0 0 0 0 0 0 0 0 0 0 0 0 0 127 0" result="hardAlpha"/>
<feOffset dy="4"/>
<feGaussianBlur stdDeviation="2"/>
<feComposite in2="hardAlpha" operator="out"/>
<feColorMatrix type="matrix" values="0 0 0 0 0 0 0 0 0 0 0 0 0 0 0 0 0 0 0.25 0"/>
<feBlend mode="normal" in2="BackgroundImageFix" result="effect1_dropShadow_108_4"/>
<feBlend mode="normal" in="SourceGraphic" in2="effect1_dropShadow_108_4" result="shape"/>
</filter>
</defs>
</svg>
