<svg version="1.2" xmlns="http://www.w3.org/2000/svg" viewBox="0 0 512 512" width="512" height="512">
	<style>
		.s0 { fill: #ffffff } 
	</style>
	<path id="Path 0" fill-rule="evenodd" class="s0" d="m255.25 51.11c66.59-0.11 68.99-0.04 76.5 1.96 4.26 1.14 10.9 3.73 14.74 5.75 3.87 2.03 9.74 6.37 13.12 9.68 4.17 4.08 11.05 13.55 36.89 53.16l32 0.56c25.84 0.45 33.16 0.88 38 2.26 3.3 0.93 9.15 3.32 13 5.3 4.68 2.42 9.49 6.12 14.52 11.17 5.44 5.46 8.53 9.62 11.18 15.05 2.02 4.13 4.36 10.2 5.22 13.5 1.35 5.24 1.55 20.54 1.57 121.5 0.03 113.37-0.01 115.65-2.03 123.5-1.13 4.4-3.48 10.7-5.22 14-1.86 3.52-6.48 9.34-11.2 14.09-5.63 5.66-9.99 9.04-14.54 11.25-3.57 1.74-9.76 4.07-13.75 5.16-7.13 1.97-10.46 2-209.25 2-198.79 0-202.12-0.03-209.25-2-3.99-1.09-10.17-3.42-13.75-5.16-4.55-2.21-8.91-5.59-14.54-11.25-4.78-4.82-9.3-10.52-11.17-14.09-1.73-3.3-4.08-9.37-5.22-13.5-2.05-7.39-2.08-9.13-2.06-123 0.02-100.04 0.22-116.37 1.55-122 0.84-3.57 3.18-9.87 5.21-14 2.66-5.4 5.8-9.62 11.21-15.05 5.03-5.05 9.84-8.75 14.52-11.17 3.85-1.98 9.7-4.37 13-5.3 4.84-1.38 12.16-1.81 70-2.82l15.38-23.58c10.46-16.03 17.34-25.5 21.51-29.58 3.37-3.3 9.27-7.66 13.12-9.68 3.84-2.03 10.14-4.57 13.99-5.65 6.62-1.85 10.73-1.96 75.75-2.06zm-28.75 87.41c-4.4 0.93-11.82 3.03-16.5 4.67-4.68 1.64-12.78 5.23-18 7.96-5.22 2.74-13.05 7.54-17.38 10.67-4.33 3.12-11.5 9.28-15.92 13.68-4.43 4.4-10.38 11.15-13.24 15-2.85 3.85-7.03 10.15-9.28 14-2.25 3.85-5.89 11.5-8.09 17-2.2 5.5-4.9 13.83-6 18.5-1.1 4.68-2.47 12.33-3.05 17-0.57 4.68-1.04 11.65-1.04 15.5 0 3.85 0.49 11.05 1.08 16 0.59 4.95 1.97 12.6 3.06 17 1.09 4.4 3.03 10.93 4.3 14.5 1.27 3.58 4.01 9.88 6.08 14 2.07 4.13 4.93 9.3 6.34 11.5 1.42 2.2 4.57 6.7 7.01 10 2.44 3.3 7.62 9.3 11.53 13.34 3.9 4.04 10.47 9.93 14.6 13.1 4.12 3.17 11.1 7.84 15.5 10.39 4.4 2.55 12.05 6.26 17 8.25 4.95 1.98 13.5 4.68 19 5.99 5.5 1.32 14.95 2.83 21 3.37 7.18 0.64 14.99 0.64 22.5 0 6.32-0.54 16-2.05 21.5-3.37 5.5-1.31 14.05-4.01 19-5.99 4.95-1.99 12.6-5.7 17-8.25 4.4-2.55 11.37-7.21 15.5-10.35 4.12-3.15 11.34-9.71 16.03-14.6 4.69-4.88 11.06-12.7 14.14-17.38 3.09-4.68 7.41-12.1 9.61-16.5 2.19-4.4 5.35-12.05 7.01-17 1.66-4.95 3.75-12.82 4.65-17.5 0.89-4.68 1.9-13.23 2.23-19 0.35-6.03 0.09-14.97-0.6-21-0.66-5.77-2.1-14.1-3.2-18.5-1.1-4.4-3.04-10.93-4.31-14.5-1.27-3.57-3.99-9.87-6.04-14-2.06-4.12-6.26-11.32-9.35-16-3.09-4.68-9.45-12.5-14.14-17.38-4.69-4.89-11.91-11.44-16.03-14.56-4.13-3.13-10.2-7.29-13.5-9.26-3.3-1.97-8.25-4.7-11-6.08-2.75-1.38-9.73-4.09-15.5-6.03-5.77-1.94-14.55-4.21-19.5-5.04-4.95-0.83-13.5-1.72-19-1.99-5.5-0.26-13.82-0.1-18.5 0.35-4.68 0.46-12.1 1.59-16.5 2.51zm178.84 40.35c-1.29 1.72-2.79 4.82-3.33 6.88-0.55 2.06-0.99 4.65-0.98 5.75 0.01 1.1 0.83 3.8 1.82 6 0.99 2.2 3.23 5.24 4.98 6.75 1.74 1.51 4.86 3.2 6.92 3.74 2.06 0.55 9.04 1 15.5 1 6.46 0.01 13.66-0.44 16-0.99 2.35-0.56 5.83-2.46 7.78-4.25q3.52-3.25 4.75-8c0.86-3.34 0.93-6.01 0.25-9-0.53-2.34-1.81-5.37-2.84-6.75-1.03-1.37-3.41-3.53-5.28-4.78-3.22-2.15-4.34-2.27-19.91-2.21-11.2 0.05-17.6 0.5-19.91 1.4-1.87 0.73-4.46 2.73-5.75 4.46zm-144.84 17.91c2.75 0.18 8.37 1.03 12.5 1.88 4.12 0.85 10.87 3.11 15 5.01 4.12 1.91 10.2 5.4 13.5 7.76 3.3 2.35 8.42 6.94 11.38 10.18 2.95 3.24 7.1 8.82 9.22 12.39 2.11 3.57 4.98 9.88 6.38 14 1.4 4.13 3.04 11.32 3.64 16 0.61 4.68 0.81 11.2 0.44 14.5-0.37 3.3-1.35 8.93-2.17 12.5-0.83 3.57-3.2 10.1-5.28 14.5-2.08 4.4-6.32 11.15-9.43 15-3.11 3.85-8.47 9.27-11.92 12.04-3.44 2.77-9.64 6.71-13.76 8.75-4.13 2.04-11.1 4.62-15.5 5.72-5.48 1.38-11.3 2.01-18.5 2.01-7.18 0-13.03-0.63-18.5-2-4.4-1.11-11.6-3.78-16-5.95-4.4-2.17-10.7-6.14-14-8.81-3.3-2.67-8.16-7.53-10.81-10.81-2.64-3.27-6.11-8.2-7.7-10.95-1.59-2.75-4.05-8.37-5.45-12.5-1.4-4.12-3.04-11.1-3.63-15.5-0.62-4.53-0.78-11.26-0.38-15.5 0.39-4.12 1.59-10.65 2.67-14.5 1.07-3.85 3.71-10.37 5.86-14.5 2.16-4.12 6.12-10.2 8.82-13.5 2.7-3.3 7.54-8.08 10.76-10.63 3.22-2.54 8.79-6.22 12.36-8.17 3.57-1.95 9.87-4.55 14-5.77 4.12-1.22 10.65-2.51 14.5-2.86 3.85-0.34 9.25-0.48 12-0.29z"/>
</svg>