<svg width="318" height="318" viewBox="0 0 318 318" fill="none" xmlns="http://www.w3.org/2000/svg">
<path d="M143.686 48.5508C148.115 48.317 153.114 48.4367 157.613 48.4412L180.196 48.4523L197.277 48.438C200.75 48.4325 208.484 47.868 211.206 49.7705C218.693 55.0017 213.046 62.0333 210.186 68.119C207.4 74.045 204.229 79.8565 201.374 85.7657C196.578 95.7572 191.684 105.701 186.691 115.596C185.216 118.547 181.822 125.915 180.182 128.383L193.492 128.324C199.64 128.309 207.59 127.352 209.156 135.245C210.03 139.648 204.28 146.423 201.841 150.13C196.351 158.426 190.775 166.663 185.111 174.841L144.041 235.63C138.093 245.634 130.063 255.727 123.714 265.59C120.246 270.977 113.592 271.125 109.965 265.842C107.326 261.997 110.215 254.67 111.41 250.413L116.171 233.326L123.556 206.217C127.146 193.447 131.082 180.017 134.29 167.184C128.46 167.049 111.107 168.155 106.944 165.902C104.982 164.84 103.78 163.195 103.203 161.049C102.837 159.686 102.961 158.338 103.333 156.993C104.889 151.364 106.943 145.792 108.805 140.254L118.985 109.825L132.251 69.5495C134.126 63.9037 136.194 56.9332 138.686 51.4982C139.446 49.8402 141.971 48.953 143.686 48.5508Z" fill="white"/>
<path d="M236.721 0H285.13C288.28 1.04138 290.753 1.62841 293.91 2.95773C302.673 6.63888 309.833 13.3248 314.105 21.8135C316.305 26.2012 316.595 29.7887 318 33.368V80.9628C316.788 83.2148 315.46 85.3093 313.217 86.706C309.117 89.259 302.253 87.4052 300.383 82.8672C299.093 79.7412 299.433 74.8692 299.443 71.4112L299.483 50.0375C299.493 42.9175 300.118 34.7098 296.38 28.329C294.183 24.6323 290.78 21.8056 286.745 20.3257C281.02 18.2449 271.813 18.7273 265.565 18.7321L247.666 18.7893C244.199 18.8048 240.541 19.0522 237.155 18.2395C231.566 16.8978 229.193 11.9211 230.607 6.53968C231.435 3.38963 234.027 1.52145 236.721 0Z" fill="white"/>
<path d="M32.6145 0H81.1462C83.8005 1.57731 86.6012 3.3505 87.39 6.55835C88.7055 11.9092 86.0765 17.1393 80.5068 18.3298C77.3515 19.0042 73.6985 18.7793 70.45 18.7728L53.4473 18.74C46.82 18.7294 36.8263 18.22 30.8318 20.4535C27.1105 21.8745 23.9584 24.4769 21.8584 27.8615C17.8812 34.2302 18.4713 42.777 18.4818 49.9772L18.532 70.7615C18.5382 74.1315 18.8251 78.3462 17.9132 81.587C17.1187 84.4107 14.559 86.9993 11.6648 87.5888C5.8859 88.7943 2.66293 85.9767 0 81.2322V32.534C0.36544 31.8513 0.833247 30.3408 1.03843 29.5413C4.25692 17.0002 13.7655 6.14088 26.173 2.09887C28.2603 1.41891 30.4572 0.683685 32.6145 0Z" fill="white"/>
<path d="M236.851 318C234.747 316.72 232.533 315.435 231.275 313.242C228.93 309.137 230.655 302.175 235.241 300.36C238.519 299.062 243.314 299.417 246.878 299.425L267.723 299.467C274.808 299.48 282.83 300.127 289.253 296.53C300.84 290.042 299.5 277.468 299.478 266.133L299.435 247.014C299.417 238.917 298.802 228.06 311.745 230.753C314.612 231.349 316.7 234.531 318 237.015V284.685C317.16 287.495 316.235 291.402 315.057 294.047C310.925 303.337 304.877 309.338 296.057 314.203C292.587 316.118 287.247 316.995 285.467 318H236.851Z" fill="white"/>
<path d="M0 236.796C1.56889 234.179 3.4216 231.303 6.55328 230.563C11.4066 229.417 17.1277 231.698 18.1024 236.982C18.7364 240.419 18.5388 243.744 18.5254 247.201L18.4878 266.253C18.4756 277.098 17.1084 289.375 27.7663 296.038C34.414 300.193 42.499 299.49 49.9825 299.473L70.4885 299.42C74.0463 299.41 77.9638 299.105 81.5295 300.06C87.353 301.617 89.329 308.7 86.393 313.605C85.2515 315.51 82.9585 316.935 80.9733 318H32.874C29.9245 317.108 25.435 315.795 22.6818 314.517C13.7459 310.372 6.79515 303.065 2.86055 294.047C1.69567 291.377 1.07483 288.008 0.0674698 285.383L0 285.212V236.796Z" fill="white"/>
</svg>
