<svg width="21" height="19" viewBox="0 0 21 19" fill="none" xmlns="http://www.w3.org/2000/svg">
<path d="M0.7254 11.3145H2.43593V18.2562C2.43593 18.6653 2.76581 19 3.16901 19H8.17839C8.58158 19 8.91146 18.6653 8.91146 18.2562V13.1739H11.9659V18.2562C11.9659 18.6653 12.2958 19 12.699 19H17.464C17.8672 19 18.1971 18.6653 18.1971 18.2562V11.3145H20.2742C20.5674 11.3145 20.8362 11.1286 20.9461 10.8559C21.0561 10.5832 20.995 10.2609 20.7873 10.0501L11.2329 0.220133C10.9518 -0.0649889 10.4876 -0.0773703 10.2066 0.207751L0.224492 10.0377C0.00456908 10.2485 -0.0565351 10.5707 0.0534266 10.8559C0.163388 11.1409 0.432169 11.3145 0.7254 11.3145ZM10.6953 1.7944L18.5147 9.82698H17.464C17.0608 9.82698 16.7309 10.1617 16.7309 10.5707V17.5125H13.4321V12.4301C13.4321 12.0211 13.1022 11.6864 12.699 11.6864H8.17839C7.77519 11.6864 7.44531 12.0211 7.44531 12.4301V17.5125H3.90208V10.5707C3.90208 10.1617 3.5722 9.82698 3.16901 9.82698H2.53369L10.6953 1.7944Z" fill="white"/>
</svg>
