<svg width="58" height="67" viewBox="0 0 58 67" fill="none" xmlns="http://www.w3.org/2000/svg">
<path d="M27.7357 0.0223205C34.1669 -0.231102 40.4974 1.67945 45.7147 5.44845C51.9241 9.91618 56.0993 16.6723 57.3178 24.2243C57.8341 27.439 57.7018 30.7234 57.7011 33.98L57.7001 45.8708L57.7012 54.8924C57.7017 57.8667 58.1214 60.8574 56.2835 63.3851C55.1195 64.9815 53.3684 66.0497 51.4161 66.354C49.1551 66.7065 46.342 65.8118 44.618 64.3369C42.9608 62.9192 42.1719 61.4299 39.7623 61.3069C36.8944 61.1606 36.0786 63.3394 34.0167 64.7748C32.6868 65.7006 31.4856 66.1139 29.9062 66.3628C29.7983 66.3877 29.3654 66.4307 29.2443 66.4341C26.9884 66.4903 24.7345 65.7337 22.9992 64.2831C21.8002 63.2808 20.8103 61.8404 19.2164 61.4493C17.8461 61.113 16.2755 61.3498 15.1865 62.2845C14.2999 63.0455 13.6141 63.9408 12.6582 64.6333C11.2383 65.6771 9.5523 66.2983 7.79464 66.425C3.78023 66.6762 0.106074 63.4638 0.0330351 59.3944C-0.00348415 57.3598 0.00820562 55.3305 0.00868404 53.2954L0.0106323 41.831L0.00871895 32.8268C0.00861495 30.5729 -0.0548967 28.1114 0.162451 25.8894C0.786855 19.7851 3.338 14.0379 7.44643 9.48012C12.763 3.57383 19.8582 0.443342 27.7357 0.0223205ZM20.341 29.2673C21.1337 29.2531 21.6839 29.2115 22.2901 28.5913C22.7103 28.1644 22.9398 27.5856 22.9261 26.9868C22.9166 26.4293 22.7213 25.8953 22.3095 25.5098C22.0429 25.2633 21.718 25.0887 21.3653 25.0023C20.6662 24.8277 17.613 24.8829 16.721 24.9187C15.9174 24.9262 15.3336 24.9029 14.7083 25.5434C14.295 25.9643 14.0682 26.5336 14.0789 27.1233C14.123 29.9868 18.3769 29.27 20.341 29.2673ZM40.9338 29.2676C41.7479 29.2565 42.3161 29.2278 42.9463 28.5939C43.3748 28.1669 43.609 27.5827 43.594 26.9779C43.5469 25.1472 41.8453 24.8048 40.3851 24.8846C39.424 24.9371 38.3949 24.8805 37.4217 24.9188C36.5854 24.9254 35.9956 24.9 35.3461 25.5681C34.9302 25.9937 34.7063 26.5709 34.7267 27.1658C34.8316 29.964 38.9519 29.2574 40.9338 29.2676Z" fill="white"/>
</svg>
