<svg version="1.2" xmlns="http://www.w3.org/2000/svg" viewBox="0 0 512 512" width="512" height="512">
	<style>
		.s0 { fill: #ffffff } 
	</style>
	<path id="Path 0" class="s0" d="m57.5 2.04c-5.58 1.19-12.42 3.59-18 6.34-4.95 2.44-11.48 6.41-14.5 8.83-3.02 2.42-7.86 7.52-10.75 11.34-2.88 3.82-6.56 10.1-8.16 13.95-1.61 3.85-3.63 10.49-4.51 14.75-1.41 6.91-1.58 28.53-1.59 200-0.01 190.33 0.01 192.33 2.03 200.25 1.12 4.4 3.19 10.48 4.58 13.5 1.4 3.02 4.65 8.41 7.22 11.97 2.58 3.56 7.44 8.73 10.81 11.5 3.38 2.77 9.68 6.77 14 8.91 4.33 2.13 11.47 4.83 15.87 6 7.85 2.08 9.56 2.12 92.5 2.12h84.5c6.97-4.05 10.31-6.75 11.91-8.61 1.6-1.87 3.78-5.41 4.85-7.89 1.22-2.8 1.95-6.76 1.95-10.5 0-3.71-0.74-7.72-1.93-10.5-1.06-2.48-3.47-6.22-5.35-8.33-1.89-2.1-5.46-4.8-7.93-6-4.47-2.15-5.05-2.17-81-2.67l-76.5-0.5c-8.36-3.88-12.44-6.8-14.46-9-2.01-2.2-4.53-6.25-5.6-9-1.89-4.88-1.94-9.21-1.94-183v-178c3.88-8.36 6.91-12.53 9.25-14.65 2.34-2.12 5.94-4.64 8-5.6 3.44-1.6 10.15-1.79 80.75-2.25l77-0.5c8.46-4.7 12.27-7.95 14.19-10.5 1.86-2.48 3.87-6.08 4.47-8 0.6-1.92 0.92-6.68 0.72-10.58-0.31-5.71-0.96-8.01-3.38-11.94-1.65-2.68-4.91-6.36-7.25-8.17-2.34-1.82-5.94-3.76-8-4.3-2.35-0.63-33.85-0.97-84.25-0.93-75.19 0.06-81.09 0.19-89.5 1.96zm282.31 87.83c-1.49 0.46-3.96 1.52-5.5 2.37-1.55 0.85-4.1 2.83-5.67 4.4-1.57 1.57-3.67 4.44-4.66 6.36-1 1.93-2.13 5.75-2.53 8.5-0.55 3.84-0.2 6.74 1.51 12.5l2.22 7.5c72.09 72.26 87.8 88.72 87.81 90 0.01 1.1-0.65 3.01-1.48 4.25l-1.51 2.25c-203.33-0.02-247.39 0.34-251 1.02-3.03 0.57-7.53 2.03-10 3.24-2.47 1.22-5.96 3.68-7.75 5.48-1.79 1.79-4.23 5.17-5.43 7.51-1.54 3.01-2.19 6.14-2.24 10.75-0.05 5.42 0.43 7.39 2.93 11.88 1.64 2.97 4.34 6.53 5.99 7.91 1.65 1.39 5.47 3.7 8.5 5.12l5.5 2.59 253 0.5c2.78 3.49 3.56 5.4 3.52 6.5-0.04 1.26-16.2 18.17-43.48 45.5-35.3 35.37-43.83 44.43-45.63 48.5-1.6 3.61-2.25 7.08-2.31 12.5-0.08 6.14 0.35 8.39 2.4 12.42 1.42 2.79 4.23 6.17 6.5 7.8 2.2 1.59 6.48 3.6 9.5 4.46 3.58 1.03 7.24 1.36 10.5 0.96 2.75-0.33 7.7-1.95 11-3.58 5.2-2.58 15.3-12.29 75.61-72.77 55.2-55.34 70.1-70.82 72-74.79 2.05-4.29 2.39-6.49 2.39-15.5 0-9.94-0.17-10.82-3.24-16.5-2.66-4.92-15.76-18.48-72.5-75.08-65.53-65.35-69.61-69.23-75.76-71.89-3.73-1.61-8.84-2.95-12-3.14-3.02-0.19-6.71 0.03-8.19 0.48z"/>
</svg>