<svg width="58" height="67" viewBox="0 0 58 67" fill="none" xmlns="http://www.w3.org/2000/svg">
<path d="M27.7284 0.0225882C33.949 -0.224026 40.0817 1.55417 45.2056 5.09013C51.492 9.4117 55.8063 16.0516 57.201 23.5515C57.8678 27.1632 57.7018 30.7649 57.7007 34.4296L57.7028 55.3052C57.7027 58.1218 58.0639 60.8196 56.3817 63.2478C55.2534 64.8733 53.5237 65.982 51.5755 66.3284C49.2067 66.747 46.0603 65.7646 44.3463 64.1221C42.7444 62.587 42.3033 61.4214 39.7836 61.2937C36.812 61.143 36.1325 63.2694 34.0224 64.7889C32.7425 65.7105 31.4534 66.1177 29.9078 66.394C29.7297 66.4155 29.5508 66.4319 29.3717 66.4434C26.9585 66.562 24.5963 65.722 22.7998 64.1065C22.215 63.5768 21.7229 62.9488 21.164 62.4269C19.5886 60.9558 16.7439 60.9151 15.1167 62.2971C14.1966 63.0786 13.7465 63.873 12.6297 64.6742C11.2181 65.6988 9.54686 66.306 7.80674 66.4266C3.77513 66.671 0.111995 63.4814 0.0328829 59.3951C-0.00624333 57.3746 0.00794308 55.3578 0.0084007 53.3366L0.00861547 32.8406C0.00850453 30.561 -0.0555897 28.0902 0.167547 25.8407C0.799995 19.7618 3.34345 14.0399 7.43232 9.49754C12.7476 3.58365 19.8455 0.446342 27.7284 0.0225882ZM30.1577 61.769C32.101 61.0659 32.2855 60.1691 33.7269 58.9206C36.3653 56.6354 40.2965 56.2042 43.4478 57.6905C44.1609 58.0204 44.8244 58.4482 45.4192 58.9614C46.0442 59.5091 46.5386 60.1376 47.1702 60.714C48.8575 62.254 51.7109 62.6772 52.9532 60.3315C53.1863 59.8915 53.2225 59.3259 53.2529 58.8355C53.282 56.918 53.2585 54.982 53.2585 53.0634L53.2621 32.7178C53.2627 30.9171 53.3186 28.7758 53.1736 27.0028C53.0041 24.7141 52.511 22.4609 51.7088 20.3106C49.4253 14.2188 44.8099 9.28703 38.8827 6.60526C35.4776 5.05796 30.9326 4.15747 27.1985 4.53898C20.2741 5.19171 14.5329 7.86676 10.0354 13.2963C7.58604 16.2524 5.87469 19.7485 5.04266 23.4963C4.22436 27.179 4.4463 31.196 4.44748 34.9879L4.44478 55.5042C4.44381 56.7791 4.40359 58.0974 4.47716 59.3766C4.57201 61.0247 6.12548 62.1064 7.70641 61.9485C10.1105 61.7085 11.0112 59.7097 12.8002 58.4553C16.094 56.1643 20.499 56.299 23.6467 58.7867C25.4254 60.1921 26.1966 62.2039 29.2262 61.9554C29.42 61.9396 29.9956 61.8371 30.1577 61.769Z" fill="white"/>
<path d="M36.9993 24.8405C37.7826 24.7979 41.1766 24.7768 41.8355 24.9161C42.176 24.9863 42.4968 25.1307 42.7751 25.339C43.2353 25.6868 43.5326 26.2081 43.5978 26.7812C43.6715 27.3897 43.4955 28.002 43.1102 28.4787C42.6772 29.018 42.1278 29.2472 41.4561 29.3168C40.5029 29.3645 39.5095 29.3005 38.5678 29.3559C37.0808 29.4433 35.0195 29.3147 34.7628 27.4139C34.681 26.8036 34.8505 26.1861 35.2324 25.7031C35.7413 25.0568 36.2507 24.9299 36.9993 24.8405Z" fill="white"/>
<path d="M16.2999 24.8385C17.4689 24.795 18.669 24.8401 19.841 24.8177C20.6109 24.8029 21.4497 24.8577 22.0894 25.3335C22.5364 25.6674 22.8322 26.1655 22.9114 26.7177C22.9975 27.3147 22.8435 27.9215 22.483 28.4052C22.0448 28.9887 21.5178 29.215 20.8199 29.3162C19.4171 29.3804 15.997 29.6235 14.8992 28.8154C14.4598 28.4984 14.1705 28.0143 14.0996 27.4772C14.0085 26.8482 14.1747 26.2089 14.5607 25.7038C15.0623 25.0537 15.5597 24.9399 16.2999 24.8385Z" fill="white"/>
</svg>
