<svg width="342" height="441" viewBox="0 0 342 441" fill="none" xmlns="http://www.w3.org/2000/svg">
<path d="M0 397.043C0.65047 394.855 0.205845 392.76 0.471698 390.582C0.847378 387.505 1.02222 384.432 1.34081 381.36C2.29668 371.66 3.80457 362.025 5.85715 352.497C17.3243 298.012 48.674 244.397 97.3702 215.313C130.543 195.5 169.73 189.433 207.133 199.427C251.03 211.157 286.66 243.694 309.198 282.295C324.628 309.125 334.82 338.645 339.23 369.28C339.888 374.062 340.315 379.515 340.908 384.215C341.238 386.837 341.518 396.845 342 398.14V409.022C341.225 410.575 340.132 412.748 338.895 413.913C333.59 418.9 325.57 422.308 318.737 424.48C282.227 436.083 243.471 438.2 205.5 440.605C202.683 440.785 198.064 440.183 195.433 441H146.596C143.609 440.095 139.588 440.665 136.445 440.52C128.763 440.165 121.029 439.64 113.352 439.138C84.3798 437.245 48.5465 433.238 21.2246 423.788C13.3083 421.05 3.8564 417.233 0 409.285V397.043Z" fill="white"/>
<path d="M163.041 0H178.917C180.347 0.449768 186.84 1.22392 188.952 1.65961C199.032 3.70648 208.713 7.37405 217.619 12.5196C239.123 24.9092 254.775 45.3877 261.087 69.3897C267.355 93.2337 263.92 118.59 251.533 139.906C225.52 184.395 168.555 199.855 124.047 173.671C102.559 161.096 86.9683 140.478 80.7233 116.377C74.6105 92.313 78.294 66.8065 90.9655 45.4552C102.832 25.2917 121.934 10.4063 144.385 3.82645C148.16 2.72328 151.995 1.83655 155.871 1.17055C158.074 0.796703 161.005 0.563327 163.041 0Z" fill="white"/>
</svg>
