<svg width="16" height="16" viewBox="0 0 16 16" fill="none" xmlns="http://www.w3.org/2000/svg">
<path d="M7.37783 0H8.61609L8.63003 0.00460828C8.75433 0.0443914 9.0515 0.0665761 9.19616 0.0901305C9.43463 0.128957 9.65745 0.170733 9.89261 0.229917C10.9445 0.49527 11.9336 0.965947 12.803 1.61487C13.0622 1.8088 13.2805 2.017 13.5236 2.20659C13.7179 1.96311 14.0165 1.70341 14.2399 1.47565C14.4858 1.22487 14.7461 0.960214 15.018 0.740534C15.3003 0.532423 15.7978 0.738534 15.935 1.03939C15.9558 1.08487 15.9781 1.1292 16 1.17371V6.1403C15.8312 6.48877 15.682 6.66967 15.2654 6.67339C14.4826 6.68039 13.6997 6.67594 12.9168 6.67611L11.5085 6.67686C11.2931 6.67695 10.5488 6.70086 10.3841 6.61378C10.2075 6.52209 10.0768 6.36144 10.0229 6.16995C9.88611 5.69448 10.2972 5.44906 10.5794 5.14391C10.9104 4.78577 11.3069 4.45297 11.6309 4.09061C11.3512 3.85455 11.1521 3.68509 10.8444 3.48683C9.87089 2.86787 8.7195 2.5895 7.57075 2.69536C6.14733 2.81005 4.82903 3.48969 3.90995 4.58264C2.99991 5.67944 2.56314 7.093 2.69587 8.51198C2.81769 9.889 3.53342 11.2106 4.59125 12.0954C5.67636 12.9936 7.0708 13.4296 8.47427 13.3097C9.5453 13.2119 10.6732 12.7635 11.4715 12.0349C11.6308 11.8919 11.7825 11.7405 11.926 11.5816C12.0312 11.4657 12.1275 11.352 12.2382 11.2423C12.3837 11.0983 12.5856 11.1193 12.7282 11.2575C13.2174 11.7317 13.7133 12.2222 14.1753 12.7219C14.309 12.8665 14.1544 13.139 14.0446 13.2469C12.8808 14.5985 11.271 15.5134 9.52594 15.8656C9.32761 15.9056 8.79902 15.9333 8.64859 16H7.37969C7.29302 15.9666 6.63953 15.8884 6.47567 15.8556C5.76728 15.7134 5.16806 15.5076 4.51881 15.1918C2.50033 14.2214 0.983461 12.4462 0.339706 10.3011C0.243578 9.98612 0.17573 9.68475 0.11524 9.36147C0.0777966 9.16136 0.0676384 8.81494 0 8.63441V7.35264C0.0502705 7.24798 0.0708672 6.90756 0.092487 6.77691C0.116878 6.62952 0.144657 6.48655 0.175748 6.3393C0.329912 5.6197 0.584209 4.92527 0.931212 4.27628C1.93823 2.34036 3.69936 0.905672 5.79891 0.310861C6.11498 0.219275 6.43625 0.146598 6.76097 0.0932144C6.92725 0.0674738 7.22875 0.0509255 7.37783 0Z" fill="white"/>
</svg>
